# AST/ASF file generated using VICON BodyLanguage
# -----------------------------------------------
:version 1.10
:name VICON
:units
  mass 1.0
  length 0.45
  angle deg
:documentation
   .ast/.asf automatically generated from VICON data using
   VICON BodyBuilder and BodyLanguage model FoxedUp or BRILLIANT.MOD
:root
   order TX TY TZ RX RY RZ
   axis XYZ
   position 0 0 0  
   orientation 0 0 0 
:bonedata
  begin
     id 1 
     name lhipjoint
     direction 0.662698 -0.695252 0.27831 
     length 2.53073 
     axis 0 0 0  XYZ
  end
  begin
     id 2 
     name lfemur
     direction 0.34202 -0.939693 0  
     length 7.16147  
     axis 0 0 20  XYZ
    dof rx ry rz
    limits (-160.0 20.0)
           (-70.0 70.0)
           (-60.0 70.0)
  end
  begin
     id 3 
     name ltibia
     direction 0.34202 -0.939693 0   
     length 7.63967   
     axis 0 0 20   XYZ
    dof rx
    limits (-10.0 170.0)
  end
  begin
     id 4 
     name lfoot
     direction 0.0938457 -0.257721 0.961651   
     length 1.89793   
     axis -90 7.62852e-016 20   XYZ
    dof rx rz
    limits (-45.0 90.0)
           (-70.0 20.0)
  end
  begin
     id 5 
     name ltoes
     direction -0.00116841 -0.0030592 0.999995   
     length 0.955649   
     axis -90 7.62852e-016 20   XYZ
    dof rx
    limits (-90.0 20.0)
  end
  begin
     id 6 
     name rhipjoint
     direction -0.649445 -0.705948 0.282592   
     length 2.49238  
     axis 0 0 0  XYZ 
  end
  begin
     id 7 
     name rfemur
     direction -0.34202 -0.939693 0   
     length 6.90728   
     axis 0 0 -20   XYZ
    dof rx ry rz
    limits (-160.0 20.0)
           (-70.0 70.0)
           (-70.0 60.0)
  end
  begin
     id 8 
     name rtibia
     direction -0.34202 -0.939693 0   
     length 7.72868   
     axis 0 0 -20   XYZ
    dof rx
    limits (-10.0 170.0)
 end
 begin
     id 9 
     name rfoot
     direction -0.0920068 -0.252865 0.963117   
     length 1.97476  
     axis -90 -7.62852e-016 -20   XYZ
    dof rx rz
    limits (-45.0 90.0)
           (-20.0 70.0)
  end
  begin
     id 10 
     name rtoes
     direction 0.000391322 0.00230649 0.999997   
     length 0.992641   
     axis -90 -7.62852e-016 -20   XYZ
    dof rx
    limits (-90.0 20.0)
  end
  begin
     id 11 
     name lowerback
     direction -0.00875327 0.998321 -0.0572635   
     length 2.20024   
     axis 0 0 0   XYZ
    dof rx ry rz
    limits (-20.0 45.0)
           (-30.0 30.0)
           (-30.0 30.0)
  end
  begin
     id 12 
     name upperback
     direction 0.00753931 0.999972 -0.000360425   
     length 2.20538   
     axis 0 0 0   XYZ
    dof rx ry rz
    limits (-20.0 45.0)
           (-30.0 30.0)
           (-30.0 30.0)
  end
  begin
     id 13 
     name thorax
     direction 0.0117767 0.999601 0.0256663   
     length 2.21508   
     axis 0 0 0   XYZ
    dof rx ry rz
    limits (-20.0 45.0)
           (-30.0 30.0)
           (-30.0 30.0)
  end
  begin
     id 14 
     name lowerneck
     direction 0.060228 0.994909 0.0807986   
     length 1.7607   
     axis 0 0 0   XYZ
    dof rx ry rz
    limits (-20.0 45.0)
           (-30.0 30.0)
           (-30.0 30.0)
  end
  begin
     id 15 
     name upperneck
     direction -0.0563647 0.959594 -0.275685   
     length 1.75612   
     axis 0 0 0   XYZ
    dof rx ry rz
    limits (-20.0 45.0)
           (-30.0 30.0)
           (-30.0 30.0)
  end
  begin
     id 16
     name head
     direction -0.0161544 0.99458 -0.102714  
     length 1.79288  
     axis 0 0 0   XYZ
    dof rx ry rz
    limits (-20.0 45.0)
           (-30.0 30.0)
           (-30.0 30.0)
  end
  begin
     id 17 
     name lclavicle
     direction 0.93913 0.332189 -0.087669  
     length 3.52087  
     axis 0 0 0   XYZ
    dof ry rz
    limits (-20.0 10.0)
           (0.0 20.0)
  end
  begin
     id 18 
     name lhumerus
     direction 1 -4.48974e-011 -2.70836e-027   
     length 5.35289   
     axis -180 -30 -90   XYZ
    dof rx ry rz
    limits (-60.0 90.0)
           (-90.0 90.0)
           (-90.0 90.0)
  end
  begin
     id 19
     name lradius
     direction 1 -4.48961e-011 -9.76021e-027   
     length 3.27727   
     axis -180 -30 -90   XYZ
    dof rx
    limits (-10.0 170.0)
  end
  begin
     id 20
     name lwrist
     direction 1 -4.49103e-011 -2.23668e-026   
     length 1.63864   
     axis 1.44924e-014 90 90   XYZ
    dof ry
    limits (-180.0 0.0)
 end
  begin
     id 21 
     name lhand
     direction 1 3.0697e-005 0.000161777   
     length 0.54443   
     axis 2.85318e-014 90 90   XYZ
    dof rx rz
    limits (-90.0 90.0)
           (-45.0 45.0)
  end
  begin
     id 22 
     name lfingers
     direction 1 -4.49027e-011 -8.9447e-026   
     length 0.438912   
     axis 5.70628e-014 90 90   XYZ
    dof rx
    limits (0.0 90.0)
  end
  begin
     id 23
     name lthumb
     direction 0.707058 2.6516e-005 0.707156   
     length 0.630274   
     axis -90 45 -3.53137e-014   XYZ
    dof rx rz
    limits (-45.0 45.0)
           (-45.0 45.0)
  end
  begin
     id 24 
     name rclavicle
     direction -0.95274 0.284984 -0.105215   
     length 3.43401  
     axis 0 0 0   XYZ 
    dof ry rz
    limits (-10.0 20.0)
           (-20.0 0.0)
  end
  begin
     id 25 
     name rhumerus
     direction -0.999999 -0.000575019 -0.00106829  
     length 5.52077   
     axis -180 30 90   XYZ
    dof rx ry rz
    limits (-90.0 60.0)
           (-90.0 90.0)
           (-90.0 90.0)
  end
  begin
     id 26 
     name rradius
     direction -1 -4.4879e-011 -6.35415e-027   
     length 3.32364   
     axis -180 30 90   XYZ
    dof rx
    limits (-10.0 170.0)
  end
  begin
     id 27 
     name rwrist
     direction -1 -4.49048e-011 -9.98542e-027   
     length 1.66182   
     axis 6.32482e-015 -90 -90   XYZ
    dof ry
    limits (-180.0 0.0)
  end
  begin
     id 28
     name rhand
     direction -1 -4.48978e-011 -1.99771e-026   
     length 0.732235   
     axis 1.27479e-014 -90 -90   XYZ
    dof rx rz
    limits (-90.0 90.0)
           (-45.0 45.0)
  end
  begin
     id 29
     name rfingers
     direction -1 -4.49144e-011 -3.99245e-026   
     length 0.590347   
     axis 2.5496e-014 -90 -90   XYZ
    dof rx
    limits (0.0 90.0)
  end
  begin
     id 30
     name rthumb
     direction -0.707107 -6.35121e-011 0.707107   
     length 0.847624   
     axis -90 -45 -2.82974e-014   XYZ
    dof rx rz
    limits (-45.0 45.0)
           (-45.0 45.0)
  end
:hierarchy
  begin
    root lhipjoint rhipjoint lowerback
    lhipjoint lfemur
    lfemur ltibia
    ltibia lfoot
    lfoot ltoes
    rhipjoint rfemur
    rfemur rtibia
    rtibia rfoot
    rfoot rtoes
    lowerback upperback
    upperback thorax
    thorax lowerneck lclavicle rclavicle
    lowerneck upperneck
    upperneck head
    lclavicle lhumerus
    lhumerus lradius
    lradius lwrist
    lwrist lhand lthumb
    lhand lfingers
    rclavicle rhumerus
    rhumerus rradius
    rradius rwrist
    rwrist rhand rthumb
    rhand rfingers
  end

#!OML:ASF G:\Work\Work\Patient Classification 1\Elijah\terrain1\Elijah.ASF
:FULLY-SPECIFIED
:DEGREES
283
root 15.9317 21.1642 16.3247 12.1818 -2.93189 -4.03413
lowerback 6.38196 1.93166 0.195621
upperback -1.60918 2.46184 -2.63843
thorax -5.12792 1.16915 -3.11615
lowerneck -18.2938 11.1612 12.228
upperneck 12.4901 15.6265 -18.7504
head 9.54273 6.3151 -6.09509
rclavicle -1.19271e-015 -3.33958e-014
rhumerus -45.0118 11.8919 -95.8769
rradius 55.1246
rwrist -6.16721
rhand -9.89036 20.3336
rfingers 7.12502
rthumb 16.0892 -9.01846
lclavicle -1.19271e-015 -3.33958e-014
lhumerus -36.6146 11.0596 73.5162
lradius 34.498
lwrist 5.20706
lhand -17.1305 25.9995
lfingers 7.12502
lthumb 9.10941 55.7828
rfemur -7.1274 2.77036 24.74
rtibia 38.5621
rfoot 22.2429 -3.0176
rtoes -15.2164
lfemur -47.2417 -2.78364 -16.6844
ltibia 56.4087
lfoot -17.8241 -8.38742
ltoes -5.66438
284
root 15.9405 21.2189 16.4626 12.0178 -2.95333 -3.72335
lowerback 6.12784 1.86125 -0.266023
upperback -1.52112 2.33444 -2.65451
thorax -4.91605 1.12268 -2.84633
lowerneck -18.2938 11.1612 12.228
upperneck 12.4901 15.6265 -18.7504
head 9.54273 6.3151 -6.09509
rclavicle -2.22639e-014 -1.74931e-014
rhumerus -44.4942 11.643 -95.6023
rradius 54.1555
rwrist -5.43603
rhand -9.50674 20.2367
rfingers 7.12502
rthumb 16.4586 -9.0851
lclavicle -2.22639e-014 -1.74931e-014
lhumerus -36.2375 10.7877 73.73
lradius 34.8588
lwrist 5.46037
lhand -17.2233 26.1985
lfingers 7.12502
lthumb 9.01988 55.9856
rfemur -8.20192 2.31687 24.2769
rtibia 41.1096
rfoot 21.4517 -3.12123
rtoes -13.0291
lfemur -46.1018 -2.81815 -17.1493
ltibia 55.7134
lfoot -17.9944 -8.45483
ltoes -5.74827
285
root 15.9909 21.2727 16.6118 12.0505 -2.28524 -3.81944
lowerback 6.52413 1.61236 0.549586
upperback -2.23677 2.04861 -2.74293
thorax -5.87435 0.936306 -3.40761
lowerneck -18.2938 11.1612 12.228
upperneck 12.4901 15.6265 -18.7504
head 9.54273 6.3151 -6.09509
rclavicle -1.09332e-014 3.65764e-014
rhumerus -45.515 10.8226 -95.5754
rradius 53.605
rwrist -4.70925
rhand -9.39747 20.2021
rfingers 7.12502
rthumb 16.5638 -9.11097
lclavicle -1.09332e-014 3.65764e-014
lhumerus -37.3257 9.61123 73.7488
lradius 35.6465
lwrist 6.11272
lhand -17.422 26.3991
lfingers 7.12502
lthumb 8.82811 56.1944
rfemur -9.28842 0.624374 24.0082
rtibia 43.5951
rfoot 20.5259 -2.10887
rtoes -14.0744
lfemur -45.1228 -3.48192 -17.2601
ltibia 54.9966
lfoot -18.1399 -8.4612
ltoes -5.36059
286
root 15.9417 21.3293 16.7338 11.5403 -3.28411 -3.54859
lowerback 6.45495 1.91529 -0.794083
upperback -1.76654 2.34798 -2.68931
thorax -5.37826 1.13977 -2.61011
lowerneck -18.2938 11.1612 12.228
upperneck 12.4901 15.6265 -18.7504
head 9.54273 6.3151 -6.09509
rclavicle -2.94201e-014 1.27222e-014
rhumerus -44.4989 10.622 -95.2631
rradius 52.8948
rwrist -4.32714
rhand -9.7693 20.3766
rfingers 7.12502
rthumb 16.2058 -8.966
lclavicle -2.94201e-014 1.27222e-014
lhumerus -36.2969 9.48628 73.9927
lradius 36.0257
lwrist 6.42829
lhand -17.6371 26.5361
lfingers 7.12502
lthumb 8.62051 56.3401
rfemur -10.3961 1.8758 23.9177
rtibia 46.2362
rfoot 20.0718 -2.5201
rtoes -15.287
lfemur -43.5846 -2.62536 -17.5554
ltibia 54.1469
lfoot -18.1528 -8.38991
ltoes -5.58228
287
root 15.9764 21.391 16.8451 11.5455 -2.75288 -2.54452
lowerback 6.25153 1.59228 -1.41348
upperback -1.55947 1.86293 -2.94652
thorax -5.07591 0.917381 -2.46446
lowerneck -18.2938 11.1612 12.228
upperneck 12.4901 15.6265 -18.7504
head 9.54273 6.3151 -6.09509
rclavicle -3.18055e-015 1.59028e-014
rhumerus -43.7206 10.5028 -94.9679
rradius 52.291
rwrist -4.04628
rhand -10.0284 20.2471
rfingers 7.12502
rthumb 15.9563 -9.11572
lclavicle -3.18055e-015 1.59028e-014
lhumerus -35.3247 9.55657 74.1919
lradius 36.2041
lwrist 6.45404
lhand -17.8825 26.0898
lfingers 7.12502
lthumb 8.38375 55.9034
rfemur -11.7979 0.517212 22.6027
rtibia 48.7978
rfoot 19.2957 -1.49863
rtoes -14.9841
lfemur -42.6532 -3.44315 -18.7875
ltibia 53.2841
lfoot -18.1565 -8.15906
ltoes -5.58325
288
root 15.9861 21.4397 16.9547 11.347 -2.61092 -2.38676
lowerback 6.34363 1.47388 -1.57948
upperback -1.49907 1.68991 -2.9435
thorax -5.07538 0.836778 -2.3515
lowerneck -18.2938 11.1612 12.228
upperneck 12.4901 15.6265 -18.7504
head 9.54273 6.3151 -6.09509
rclavicle 9.34288e-015 -1.59028e-015
rhumerus -43.4454 10.0165 -94.6462
rradius 51.9201
rwrist -3.49821
rhand -10.2148 20.2206
rfingers 7.12502
rthumb 15.7768 -9.15648
lclavicle 9.34288e-015 -1.59028e-015
lhumerus -34.976 9.24111 74.3784
lradius 36.7498
lwrist 6.71059
lhand -18.5218 25.1428
lfingers 7.12502
lthumb 7.7667 54.9802
rfemur -13.0826 0.0392581 22.3805
rtibia 51.4477
rfoot 18.9545 -0.861435
rtoes -14.1379
lfemur -41.5482 -3.56223 -19.0754
ltibia 52.4624
lfoot -18.2003 -7.98864
ltoes -6.53981
289
root 15.9979 21.4874 17.0714 11.1939 -2.40821 -2.36005
lowerback 6.37394 1.36264 -1.54397
upperback -1.6262 1.54085 -2.91407
thorax -5.22954 0.761837 -2.32937
lowerneck -18.2938 11.1612 12.228
upperneck 12.4901 15.6265 -18.7504
head 9.54273 6.3151 -6.09509
rclavicle 1.53064e-014 -4.77083e-015
rhumerus -43.7428 9.40256 -94.3503
rradius 51.8192
rwrist -3.17438
rhand -10.4916 20.4232
rfingers 7.12502
rthumb 15.5102 -8.97473
lclavicle 1.53064e-014 -4.77083e-015
lhumerus -34.9945 8.77429 74.5281
lradius 37.2316
lwrist 6.8992
lhand -19.0751 24.9548
lfingers 7.12502
lthumb 7.23269 54.8112
rfemur -14.2802 -0.600691 22.2953
rtibia 53.9491
rfoot 18.8731 -0.115448
rtoes -14.349
lfemur -40.469 -3.73637 -19.2121
ltibia 51.641
lfoot -18.4212 -7.76827
ltoes -7.97518
